<?xml version="1.0" encoding="utf-8"?>
<!-- Generator: Adobe Illustrator 24.1.2, SVG Export Plug-In . SVG Version: 6.00 Build 0)  -->
<svg version="1.1" id="Слой_1" xmlns="http://www.w3.org/2000/svg" xmlns:xlink="http://www.w3.org/1999/xlink" x="0px" y="0px"
	 viewBox="0 0 40 40" style="enable-background:new 0 0 40 40;" xml:space="preserve">
<style type="text/css">
	.st0{fill:#686868;}
</style>
<g>
	<g>
		<path id="XMLID_114_" class="st0" d="M40,16.14c0-0.97-0.79-1.76-1.76-1.76H1.74c-0.97,0-1.76,0.79-1.76,1.76v21.65
			c0,0.97,0.79,1.76,1.76,1.76h36.5c0.97,0,1.76-0.79,1.76-1.76V16.14z M7.56,20.14H2.71V16.5h4.85V20.14z M21.27,37.74
			c-6.03,0-10.92-4.89-10.92-10.92c0-6.03,4.89-10.92,10.92-10.92c6.03,0,10.92,4.89,10.92,10.92
			C32.19,32.85,27.3,37.74,21.27,37.74z"/>
		<path id="XMLID_111_" class="st0" d="M21.28,17.89c-5.01,0-9.07,4.06-9.07,9.07c0,5.01,4.06,9.07,9.07,9.07
			c5.01,0,9.07-4.06,9.07-9.07C30.35,21.95,26.29,17.89,21.28,17.89z M21.28,33.68c-3.71,0-6.73-3.01-6.73-6.73
			c0-3.71,3.01-6.73,6.73-6.73c3.71,0,6.73,3.01,6.73,6.73C28,30.67,24.99,33.68,21.28,33.68z"/>
		<path id="XMLID_109_" class="st0" d="M11.51,13.61v-2.05c0-0.25-0.25-0.37-0.5-0.37H6.56c-0.25,0-0.5,0.12-0.5,0.37v2.05
			c0,0.03,0.05,0.3,0.05,0.3h5.35C11.47,13.91,11.51,13.64,11.51,13.61z"/>
	</g>
	<rect x="6.06" y="0.44" class="st0" width="5.46" height="7"/>
	<polygon class="st0" points="8.78,10.39 11.51,7.44 12.95,6.01 4.67,6.01 	"/>
</g>
</svg>
