<?xml version="1.0" encoding="utf-8"?>
<!-- Generator: Adobe Illustrator 24.1.2, SVG Export Plug-In . SVG Version: 6.00 Build 0)  -->
<svg version="1.1" id="Слой_1" xmlns="http://www.w3.org/2000/svg" xmlns:xlink="http://www.w3.org/1999/xlink" x="0px" y="0px"
	 viewBox="0 0 40 40" style="enable-background:new 0 0 40 40;" xml:space="preserve">
<style type="text/css">
	.st0{fill:#686868;}
</style>
<g id="XMLID_110_">
	<path id="XMLID_114_" class="st0" d="M39.9,9.9c0-1-0.8-1.8-1.8-1.8H1.8C0.8,8.2,0,8.9,0,9.9v21.6c0,1,0.8,1.8,1.8,1.8h36.4
		c1,0,1.8-0.8,1.8-1.8L39.9,9.9L39.9,9.9z M7.6,13.9H2.7v-3.6h4.8C7.6,10.3,7.6,13.9,7.6,13.9z M21.2,31.5c-6,0-10.9-4.9-10.9-10.9
		S15.3,9.7,21.2,9.7s10.9,4.9,10.9,10.9S27.2,31.5,21.2,31.5z"/>
	<path id="XMLID_111_" class="st0" d="M21.2,11.5c-5,0-9.1,4.1-9.1,9.1s4.1,9.1,9.1,9.1s9.1-4.1,9.1-9.1S26.2,11.5,21.2,11.5z
		 M21.2,27.3c-3.7,0-6.7-3-6.7-6.7s3-6.7,6.7-6.7s6.7,3,6.7,6.7S24.9,27.3,21.2,27.3z"/>
</g>
<g id="XMLID_108_">
	<path id="XMLID_109_" class="st0" d="M11,6.2V4.1c0-0.3-0.3-0.4-0.5-0.4H5.9c-0.3,0-0.5,0.1-0.5,0.4v2.1l0.1,0.3H11
		C11,6.5,11,6.3,11,6.2z"/>
</g>
</svg>
