<?xml version="1.0" encoding="utf-8"?>
<!-- Generator: Adobe Illustrator 24.1.2, SVG Export Plug-In . SVG Version: 6.00 Build 0)  -->
<svg version="1.1" id="Слой_1" xmlns="http://www.w3.org/2000/svg" xmlns:xlink="http://www.w3.org/1999/xlink" x="0px" y="0px"
	 viewBox="0 0 40 40" style="enable-background:new 0 0 40 40;" xml:space="preserve">
<style type="text/css">
	.st0{fill:#686868;}
</style>
<path id="heart" class="st0" d="M40,13.78c0-0.05,0-0.11,0-0.17c0-0.16,0-0.48,0-0.48h-0.01c-0.3-6.58-5.13-11.47-11.06-11.47
	c-3.67,0-6.91,1.95-8.93,4.96c-2.01-3-5.26-4.93-8.93-4.93c-5.71,0-10.41,4.55-11,10.82H0.05c0,0,0,0.07,0,0.12
	C0.02,13.02,0,13.39,0,13.79c0,1.81,0.36,3.51,1.01,5.05C5,31.11,19.95,38.34,19.95,38.34s18.64-8.32,19.98-23.15
	C39.97,14.73,40,14.26,40,13.78z"/>
</svg>
