<?xml version="1.0" encoding="UTF-8"?>
<svg xmlns="http://www.w3.org/2000/svg" xmlns:xlink="http://www.w3.org/1999/xlink" width="20pt" height="20pt" viewBox="0 0 20 20" version="1.1">
<g id="surface1">
<path style=" stroke:none;fill-rule:nonzero;fill:rgb(40.784314%,40.784314%,40.784314%);fill-opacity:1;" d="M 20 8.070312 C 20 7.585938 19.605469 7.191406 19.121094 7.191406 L 0.871094 7.191406 C 0.386719 7.191406 -0.0117188 7.585938 -0.0117188 8.070312 L -0.0117188 18.894531 C -0.0117188 19.378906 0.386719 19.773438 0.871094 19.773438 L 19.121094 19.773438 C 19.605469 19.773438 20 19.378906 20 18.894531 Z M 3.78125 10.070312 L 1.355469 10.070312 L 1.355469 8.25 L 3.78125 8.25 Z M 10.636719 18.871094 C 7.621094 18.871094 5.175781 16.425781 5.175781 13.410156 C 5.175781 10.394531 7.621094 7.949219 10.636719 7.949219 C 13.648438 7.949219 16.09375 10.394531 16.09375 13.410156 C 16.09375 16.425781 13.648438 18.871094 10.636719 18.871094 Z M 10.636719 18.871094 "/>
<path style=" stroke:none;fill-rule:nonzero;fill:rgb(40.784314%,40.784314%,40.784314%);fill-opacity:1;" d="M 10.640625 8.945312 C 8.136719 8.945312 6.105469 10.976562 6.105469 13.480469 C 6.105469 15.984375 8.136719 18.015625 10.640625 18.015625 C 13.144531 18.015625 15.175781 15.984375 15.175781 13.480469 C 15.175781 10.976562 13.144531 8.945312 10.640625 8.945312 Z M 10.640625 16.839844 C 8.785156 16.839844 7.273438 15.335938 7.273438 13.476562 C 7.273438 11.621094 8.78125 10.109375 10.640625 10.109375 C 12.496094 10.109375 14.003906 11.613281 14.003906 13.476562 C 14 15.335938 12.496094 16.839844 10.640625 16.839844 Z M 10.640625 16.839844 "/>
<path style=" stroke:none;fill-rule:nonzero;fill:rgb(40.784314%,40.784314%,40.784314%);fill-opacity:1;" d="M 5.753906 6.804688 L 5.753906 5.78125 C 5.753906 5.65625 5.628906 5.59375 5.503906 5.59375 L 3.28125 5.59375 C 3.15625 5.59375 3.03125 5.65625 3.03125 5.78125 L 3.03125 6.804688 C 3.03125 6.820312 3.054688 6.953125 3.054688 6.953125 L 5.730469 6.953125 C 5.734375 6.953125 5.753906 6.820312 5.753906 6.804688 Z M 5.753906 6.804688 "/>
<path style=" stroke:none;fill-rule:nonzero;fill:rgb(40.784314%,40.784314%,40.784314%);fill-opacity:1;" d="M 3.03125 0.21875 L 5.761719 0.21875 L 5.761719 3.71875 L 3.03125 3.71875 Z M 3.03125 0.21875 "/>
<path style=" stroke:none;fill-rule:nonzero;fill:rgb(40.784314%,40.784314%,40.784314%);fill-opacity:1;" d="M 4.390625 5.195312 L 5.753906 3.71875 L 6.476562 3.003906 L 2.335938 3.003906 Z M 4.390625 5.195312 "/>
</g>
</svg>
