<?xml version="1.0" encoding="UTF-8"?>
<svg xmlns="http://www.w3.org/2000/svg" xmlns:xlink="http://www.w3.org/1999/xlink" width="20pt" height="20pt" viewBox="0 0 20 20" version="1.1">
<g id="surface1">
<path style=" stroke:none;fill-rule:nonzero;fill:rgb(40.784314%,40.784314%,40.784314%);fill-opacity:1;" d="M 19.949219 4.949219 C 19.949219 4.449219 19.550781 4.050781 19.050781 4.050781 L 0.898438 4.050781 C 0.398438 4.101562 0 4.449219 0 4.949219 L 0 15.75 C 0 16.25 0.398438 16.648438 0.898438 16.648438 L 19.101562 16.648438 C 19.601562 16.648438 20 16.25 20 15.75 Z M 3.800781 6.949219 L 1.351562 6.949219 L 1.351562 5.148438 L 3.75 5.148438 C 3.800781 5.148438 3.800781 6.949219 3.800781 6.949219 Z M 10.601562 15.75 C 7.601562 15.75 5.148438 13.300781 5.148438 10.300781 C 5.148438 7.300781 7.648438 4.851562 10.601562 4.851562 C 13.550781 4.851562 16.050781 7.300781 16.050781 10.300781 C 16.050781 13.300781 13.601562 15.75 10.601562 15.75 Z M 10.601562 15.75 "/>
<path style=" stroke:none;fill-rule:nonzero;fill:rgb(40.784314%,40.784314%,40.784314%);fill-opacity:1;" d="M 10.601562 5.75 C 8.101562 5.75 6.050781 7.800781 6.050781 10.300781 C 6.050781 12.800781 8.101562 14.851562 10.601562 14.851562 C 13.101562 14.851562 15.148438 12.800781 15.148438 10.300781 C 15.148438 7.800781 13.101562 5.75 10.601562 5.75 Z M 10.601562 13.648438 C 8.75 13.648438 7.25 12.148438 7.25 10.300781 C 7.25 8.449219 8.75 6.949219 10.601562 6.949219 C 12.449219 6.949219 13.949219 8.449219 13.949219 10.300781 C 13.949219 12.148438 12.449219 13.648438 10.601562 13.648438 Z M 10.601562 13.648438 "/>
<path style=" stroke:none;fill-rule:nonzero;fill:rgb(40.784314%,40.784314%,40.784314%);fill-opacity:1;" d="M 5.5 3.101562 L 5.5 2.050781 C 5.5 1.898438 5.351562 1.851562 5.25 1.851562 L 2.949219 1.851562 C 2.800781 1.851562 2.699219 1.898438 2.699219 2.050781 L 2.699219 3.101562 L 2.75 3.25 L 5.5 3.25 C 5.5 3.25 5.5 3.148438 5.5 3.101562 Z M 5.5 3.101562 "/>
</g>
</svg>
