<?xml version="1.0" encoding="UTF-8"?>
<svg xmlns="http://www.w3.org/2000/svg" xmlns:xlink="http://www.w3.org/1999/xlink" width="20pt" height="20pt" viewBox="0 0 20 20" version="1.1">
<g id="surface1">
<path style=" stroke:none;fill-rule:nonzero;fill:rgb(40.784314%,40.784314%,40.784314%);fill-opacity:1;" d="M 20 6.890625 C 20 6.863281 20 6.835938 20 6.804688 C 20 6.726562 20 6.566406 20 6.566406 L 19.996094 6.566406 C 19.84375 3.273438 17.429688 0.828125 14.464844 0.828125 C 12.628906 0.828125 11.011719 1.804688 10 3.308594 C 8.996094 1.808594 7.371094 0.84375 5.535156 0.84375 C 2.679688 0.84375 0.328125 3.121094 0.0351562 6.253906 L 0.0234375 6.253906 C 0.0234375 6.253906 0.0234375 6.289062 0.0234375 6.316406 C 0.0117188 6.511719 0 6.695312 0 6.894531 C 0 7.800781 0.179688 8.648438 0.503906 9.421875 C 2.5 15.554688 9.976562 19.171875 9.976562 19.171875 C 9.976562 19.171875 19.296875 15.011719 19.964844 7.59375 C 19.984375 7.363281 20 7.128906 20 6.890625 Z M 20 6.890625 "/>
</g>
</svg>
